<svg width="13" height="14" viewBox="0 0 13 14" fill="none" xmlns="http://www.w3.org/2000/svg">
<path fill-rule="evenodd" clip-rule="evenodd" d="M10.8333 0C11.408 0 11.9591 0.245833 12.3654 0.683418C12.7717 1.121 13 1.71449 13 2.33333V11.6667C13 12.2855 12.7717 12.879 12.3654 13.3166C11.9591 13.7542 11.408 14 10.8333 14H2.16667C1.59203 14 1.04093 13.7542 0.634602 13.3166C0.228273 12.879 0 12.2855 0 11.6667V2.33333C0 1.71449 0.228273 1.121 0.634602 0.683418C1.04093 0.245833 1.59203 0 2.16667 0H10.8333ZM3.61111 5.44444C3.41957 5.44444 3.23587 5.52639 3.10042 5.67225C2.96498 5.81811 2.88889 6.01594 2.88889 6.22222V10.1111C2.88889 10.3174 2.96498 10.5152 3.10042 10.6611C3.23587 10.8069 3.41957 10.8889 3.61111 10.8889C3.80266 10.8889 3.98636 10.8069 4.1218 10.6611C4.25724 10.5152 4.33333 10.3174 4.33333 10.1111V6.22222C4.33333 6.01594 4.25724 5.81811 4.1218 5.67225C3.98636 5.52639 3.80266 5.44444 3.61111 5.44444ZM5.77778 4.66667C5.58623 4.66667 5.40253 4.74861 5.26709 4.89447C5.13165 5.04033 5.05556 5.23816 5.05556 5.44444V10.1111C5.05556 10.3174 5.13165 10.5152 5.26709 10.6611C5.40253 10.8069 5.58623 10.8889 5.77778 10.8889C5.96932 10.8889 6.15302 10.8069 6.28847 10.6611C6.42391 10.5152 6.5 10.3174 6.5 10.1111V7.26444C6.72028 6.99689 7.09222 6.68267 7.50606 6.49211C7.74656 6.38167 8.10839 6.33656 8.35972 6.42211C8.4431 6.44489 8.51736 6.4962 8.57133 6.56833C8.60889 6.62278 8.66667 6.74411 8.66667 7V10.1111C8.66667 10.3174 8.74276 10.5152 8.8782 10.6611C9.01364 10.8069 9.19734 10.8889 9.38889 10.8889C9.58043 10.8889 9.76413 10.8069 9.89958 10.6611C10.035 10.5152 10.1111 10.3174 10.1111 10.1111V7C10.1111 6.47889 9.98833 6.01533 9.73267 5.64356C9.49741 5.30643 9.16815 5.05923 8.79306 4.93811C8.14161 4.718 7.42011 4.84011 6.93839 5.06256C6.78417 5.13399 6.63393 5.21502 6.48844 5.30522C6.45817 5.12601 6.37045 4.96393 6.24057 4.84724C6.1107 4.73054 5.94692 4.66664 5.77778 4.66667ZM3.61111 3.11111C3.41957 3.11111 3.23587 3.19306 3.10042 3.33892C2.96498 3.48478 2.88889 3.68261 2.88889 3.88889C2.88889 4.09517 2.96498 4.293 3.10042 4.43886C3.23587 4.58472 3.41957 4.66667 3.61111 4.66667C3.80266 4.66667 3.98636 4.58472 4.1218 4.43886C4.25724 4.293 4.33333 4.09517 4.33333 3.88889C4.33333 3.68261 4.25724 3.48478 4.1218 3.33892C3.98636 3.19306 3.80266 3.11111 3.61111 3.11111Z" fill="#F15723"/>
</svg>
