<svg width="21" height="21" viewBox="0 0 21 21" fill="none" xmlns="http://www.w3.org/2000/svg">
<path d="M6.80147 20.4286H2.26716C1.64369 20.4286 1.11015 20.2065 0.666544 19.7624C0.222937 19.3183 0.000755719 18.7837 0 18.1587V10.2143C0 8.79564 0.269414 7.46703 0.808241 6.22845C1.34707 4.98987 2.07407 3.9117 2.98925 2.99392C3.90442 2.07615 4.98132 1.34791 6.21995 0.809201C7.45857 0.270491 8.78599 0.000758202 10.2022 1.5873e-06C11.6184 -0.000755027 12.9458 0.268978 14.1845 0.809201C15.4231 1.34942 16.5 2.07729 17.4152 2.99279C18.3303 3.90829 19.0577 4.98647 19.5973 6.22732C20.1369 7.46816 20.4059 8.79715 20.4044 10.2143V18.1587C20.4044 18.7829 20.1826 19.3175 19.739 19.7624C19.2954 20.2073 18.7615 20.4293 18.1373 20.4286H13.6029V11.3492H18.1373V10.2143C18.1373 8.0012 17.3676 6.12404 15.8282 4.58281C14.2888 3.04159 12.4134 2.2706 10.2022 2.26984C7.99097 2.26909 6.11603 3.04008 4.57739 4.58281C3.03875 6.12555 2.26867 8.00271 2.26716 10.2143V11.3492H6.80147V20.4286Z" fill="#404040"/>
</svg>
