<svg width="15" height="14" viewBox="0 0 15 14" fill="none" xmlns="http://www.w3.org/2000/svg">
<path d="M8.27101 0C9.11472 0.00209995 9.54294 0.00629985 9.91268 0.0160996L10.0582 0.0209995C10.2262 0.0265993 10.3919 0.0335991 10.5921 0.0419989C11.3901 0.0769981 11.9346 0.194595 12.4123 0.367491C12.9073 0.545287 13.3243 0.786081 13.7412 1.17457C14.1227 1.52438 14.4178 1.94768 14.6059 2.41494C14.7912 2.86083 14.9172 3.36902 14.9547 4.1145C14.9637 4.3007 14.9712 4.45539 14.9772 4.61289L14.9817 4.74869C14.9929 5.09308 14.9974 5.49277 14.9989 6.28025L14.9997 6.80244V7.71941C15.0015 8.22998 14.9957 8.74055 14.9824 9.25098L14.9779 9.38677C14.9719 9.54427 14.9644 9.69897 14.9554 9.88516C14.9179 10.6306 14.7904 11.1381 14.6059 11.5847C14.4178 12.052 14.1227 12.4753 13.7412 12.8251C13.3665 13.1812 12.9129 13.4566 12.4123 13.6322C11.9346 13.8051 11.3901 13.9227 10.5921 13.9577L10.0582 13.9787L9.91268 13.9829C9.54294 13.9927 9.11472 13.9976 8.27101 13.999L7.71154 13.9997H6.72984C6.18256 14.0015 5.63528 13.9961 5.08817 13.9836L4.94268 13.9794C4.76464 13.9731 4.58665 13.9658 4.4087 13.9577C3.61074 13.9227 3.06627 13.8051 2.5878 13.6322C2.08744 13.4565 1.63418 13.1811 1.25961 12.8251C0.877841 12.4754 0.582479 12.052 0.394157 11.5847C0.208916 11.1388 0.0829224 10.6306 0.0454243 9.88516L0.0229254 9.38677L0.0191757 9.25098C0.00535093 8.74056 -0.000899426 8.22999 0.000426576 7.71941V6.28025C-0.00164924 5.76968 0.00385107 5.25911 0.0169258 4.74869L0.0221755 4.61289C0.0281752 4.45539 0.0356748 4.3007 0.0446744 4.1145C0.0821725 3.36902 0.208166 2.86153 0.393407 2.41494C0.582168 1.94749 0.87805 1.52417 1.26036 1.17457C1.63471 0.818664 2.08771 0.543238 2.5878 0.367491C3.06627 0.194595 3.60999 0.0769981 4.4087 0.0419989C4.60819 0.0335991 4.77469 0.0265993 4.94268 0.0209995L5.08817 0.0167995C5.63504 0.00436279 6.18206 -0.00100426 6.72909 0.000699932L8.27101 0ZM7.50005 3.49992C6.50554 3.49992 5.55176 3.86866 4.84853 4.52502C4.14531 5.18138 3.75024 6.0716 3.75024 6.99983C3.75024 7.92807 4.14531 8.81828 4.84853 9.47464C5.55176 10.131 6.50554 10.4997 7.50005 10.4997C8.49456 10.4997 9.44834 10.131 10.1516 9.47464C10.8548 8.81828 11.2499 7.92807 11.2499 6.99983C11.2499 6.0716 10.8548 5.18138 10.1516 4.52502C9.44834 3.86866 8.49456 3.49992 7.50005 3.49992ZM7.50005 4.89988C7.79551 4.89984 8.08808 4.95411 8.36107 5.0596C8.63406 5.16509 8.88211 5.31973 9.09107 5.5147C9.30002 5.70966 9.46579 5.94113 9.5789 6.19589C9.69202 6.45065 9.75026 6.72371 9.75031 6.99948C9.75036 7.27525 9.69221 7.54833 9.57919 7.80312C9.46617 8.05792 9.30048 8.28944 9.0916 8.48447C8.88271 8.6795 8.63471 8.83422 8.36176 8.9398C8.08881 9.04537 7.79626 9.09973 7.5008 9.09978C6.90409 9.09978 6.33182 8.87854 5.90989 8.48472C5.48795 8.0909 5.25091 7.55677 5.25091 6.99983C5.25091 6.44289 5.48795 5.90876 5.90989 5.51494C6.33182 5.12113 6.90409 4.89988 7.5008 4.89988M11.4381 2.44994C11.1895 2.44994 10.951 2.54213 10.7752 2.70622C10.5994 2.87031 10.5006 3.09286 10.5006 3.32492C10.5006 3.55698 10.5994 3.77953 10.7752 3.94362C10.951 4.10771 11.1895 4.1999 11.4381 4.1999C11.6867 4.1999 11.9252 4.10771 12.101 3.94362C12.2768 3.77953 12.3756 3.55698 12.3756 3.32492C12.3756 3.09286 12.2768 2.87031 12.101 2.70622C11.9252 2.54213 11.6867 2.44994 11.4381 2.44994Z" fill="#F15723"/>
</svg>
