<svg width="14" height="14" viewBox="0 0 14 14" fill="none" xmlns="http://www.w3.org/2000/svg">
<path d="M9.86008 0H7.00335C6.81779 0 6.63983 0.0737497 6.50861 0.205025C6.3774 0.336301 6.30369 0.514348 6.30369 0.7V8.75C6.30377 8.92441 6.26043 9.09609 6.17759 9.24954C6.09474 9.40299 5.97499 9.53338 5.82915 9.62893C5.68331 9.72448 5.51598 9.78218 5.34228 9.79681C5.16857 9.81145 4.99395 9.78257 4.83419 9.71277C4.67443 9.64298 4.53457 9.53447 4.42723 9.39704C4.3199 9.25962 4.24847 9.09761 4.21939 8.92564C4.19032 8.75368 4.20452 8.57717 4.2607 8.41207C4.3169 8.24697 4.41331 8.09848 4.54123 7.98L4.62519 7.91C4.71196 7.84472 4.78235 7.76014 4.8308 7.66295C4.87926 7.56575 4.90444 7.45861 4.90436 7.35V4.3218C4.90444 4.21614 4.88062 4.11182 4.83467 4.01669C4.78872 3.92155 4.72184 3.83805 4.63904 3.77245C4.55625 3.70686 4.45968 3.66087 4.35659 3.63793C4.2535 3.61499 4.14655 3.6157 4.04377 3.64C2.79072 3.93545 1.68996 4.68144 0.950891 5.73604C0.211825 6.79064 -0.113966 8.08025 0.0354995 9.35953C0.184965 10.6388 0.799258 11.8185 1.76151 12.6741C2.72376 13.5298 3.96682 14.0016 5.25419 14L5.42421 13.9965C6.78564 13.9523 8.07657 13.3803 9.02409 12.4012C9.97162 11.4221 10.5015 10.1128 10.5017 8.75V6.86L10.7193 6.9671C11.5043 7.3381 12.3516 7.5747 13.2311 7.6622C13.3284 7.67188 13.4266 7.66106 13.5195 7.63042C13.6123 7.59978 13.6977 7.55001 13.7702 7.48432C13.8426 7.41863 13.9005 7.33847 13.9401 7.24903C13.9797 7.15958 14.0001 7.06282 14 6.965V4.1419C14 3.97641 13.9414 3.81628 13.8345 3.68992C13.7277 3.56357 13.5796 3.47917 13.4165 3.4517C12.7005 3.33016 12.04 2.98891 11.5264 2.47522C11.0129 1.96153 10.6716 1.30079 10.55 0.5845C10.5226 0.421177 10.4383 0.272829 10.312 0.165815C10.1857 0.0587998 10.0256 4.86136e-05 9.86008 0Z" fill="#F15723"/>
</svg>
