<svg width="15" height="15" viewBox="0 0 15 15" fill="none" xmlns="http://www.w3.org/2000/svg">
<path d="M8.43297 0.104849L8.00721 0.0450935C6.72765 -0.139657 5.42193 0.0431181 4.24228 0.57211C3.06263 1.1011 2.05765 1.95452 1.34449 3.03286C0.585718 4.06362 0.133393 5.28768 0.0395724 6.56417C-0.0542479 7.84065 0.21425 9.11769 0.814166 10.2483C0.875563 10.3616 0.913787 10.486 0.926611 10.6143C0.939435 10.7425 0.926602 10.872 0.88886 10.9953C0.582614 12.0484 0.298777 13.1091 0 14.222L0.373471 14.11C1.38184 13.8411 2.39021 13.5722 3.39858 13.3257C3.61142 13.2815 3.83264 13.3023 4.03348 13.3855C4.93818 13.827 5.92685 14.0699 6.93315 14.0979C7.93945 14.1259 8.94009 13.9383 9.86792 13.5477C10.7958 13.1572 11.6293 12.5726 12.3127 11.8334C12.996 11.0942 13.5133 10.2173 13.8299 9.26171C14.1464 8.30609 14.2549 7.29382 14.1481 6.29281C14.0412 5.29181 13.7215 4.32525 13.2104 3.45799C12.6992 2.59072 12.0085 1.84283 11.1845 1.26449C10.3605 0.686159 9.42234 0.290766 8.43297 0.104849ZM10.3153 9.90472C10.0438 10.1478 9.71275 10.3145 9.35586 10.388C8.99897 10.4615 8.62898 10.4391 8.28358 10.323C6.71841 9.88228 5.36051 8.90026 4.45177 7.55185C4.10466 7.07495 3.82561 6.55206 3.62267 5.99822C3.51275 5.67686 3.49294 5.33155 3.56536 4.99973C3.63778 4.66791 3.79967 4.36226 4.03348 4.11592C4.14731 3.97066 4.30224 3.86303 4.4781 3.80708C4.65397 3.75112 4.84261 3.74942 5.01945 3.80221C5.16883 3.83956 5.27341 4.05617 5.40786 4.2205C5.51691 4.52898 5.64464 4.83075 5.7888 5.1243C5.89817 5.27406 5.94384 5.46102 5.91585 5.64434C5.88787 5.82767 5.78848 5.99248 5.63941 6.10279C5.30328 6.40157 5.35557 6.64806 5.59459 6.98418C6.12301 7.74543 6.85214 8.34528 7.70097 8.71708C7.93999 8.82166 8.11925 8.84406 8.27611 8.59757C8.34334 8.50047 8.43297 8.41831 8.50766 8.32867C8.94089 7.78341 8.80644 7.79088 9.49362 8.08965C9.71248 8.18153 9.92461 8.28909 10.1285 8.41084C10.3302 8.53035 10.6364 8.65733 10.6813 8.83659C10.7244 9.03107 10.713 9.23368 10.6485 9.42212C10.5839 9.61057 10.4686 9.77756 10.3153 9.90472Z" fill="#F15723"/>
</svg>
